<svg xmlns="http://www.w3.org/2000/svg" xmlns:xlink="http://www.w3.org/1999/xlink" version="1.1" x="0px" y="0px" viewBox="0 0 100 100" enable-background="new 0 0 100 100" xml:space="preserve"><path fill="#000000" d="M61.6576614,92.0944672H10.9690828C7.6778588,92.0944672,5,89.4166107,5,86.1253815V53.6839256  c0-3.2912216,2.6778588-5.9690819,5.9690828-5.9690819h35.5928993V32.1245422c0-6.445467,2.5198441-12.5197392,7.0948296-17.1031418  l0.0327263-0.0331926c4.5815315-4.5675077,10.6515961-7.0826755,17.0919189-7.0826755  c6.4459381,0,12.5197372,2.5198426,17.1031418,7.09483l0.0364685,0.0369329C92.4857635,19.6188297,95,25.686554,95,32.1245422  l-0.0233765,6.7792664c0,4.5385208-3.502533,6.9134407-6.962059,6.9134407c-3.4604568,0-6.9639282-2.3749199-6.9639282-6.9139099  l0.0018692-4.9293518l-0.0215073-1.8494453c0-2.7540607-1.0584259-5.3286018-2.979866-7.2495728  c-1.942009-1.942009-4.5170135-3.0009041-7.2696762-3.0009041c-2.752655,0-5.3276672,1.0588951-7.2500381,2.9817352  l-0.0860214,0.0818138c-1.8559875,1.8592606-2.9144173,4.4338017-2.9144173,7.1869278v15.5903015h1.1266823  c3.2912216,0,5.9690857,2.6778603,5.9690857,5.9690819v32.4414558  C67.6267471,89.4166107,64.9488831,92.0944672,61.6576614,92.0944672z M10.9690828,51.544632  c-1.1799784,0-2.1392956,0.9597816-2.1392956,2.1392937v32.4414558c0,1.179512,0.9593172,2.1392975,2.1392956,2.1392975h50.6885796  c1.1799812,0,2.1392975-0.9597855,2.1392975-2.1392975V53.6839256c0-1.179512-0.9593163-2.1392937-2.1392975-2.1392937h-4.9564705  V32.1245422c0-3.7760239,1.4567413-7.3122196,4.1018753-9.9578209l0.0860214-0.0818119  c2.5796814-2.5829563,6.1158791-4.0406322,9.8923683-4.0406322c3.7764969,0,7.3126907,1.4576759,9.9578247,4.1037445  c2.2084808,2.2070827,3.587616,5.0144405,3.9943466,8.0616283h0.1280975l0.0214996,1.9158268l-0.0028,6.778801  c0,2.2753372,1.6886215,3.0831833,3.13414,3.0831833c1.4445877,0,3.1322708-0.8078461,3.1322708-3.0841217l0.0018692-7.7175426  c-0.230011-5.0728798-2.3234863-9.8217773-5.953186-13.4584866l-0.0776062-0.08041  c-3.7989273-3.7895823-8.9124832-5.9115801-14.3364563-5.9115801c-5.4080734,0-10.5066681,2.109375-14.3626366,5.9396296  L56.31036,17.7815418c-3.7961273,3.8059444-5.9185905,8.9190273-5.9185905,14.3430004V51.544632H10.9690828z M36.3133736,79.9356384  c-2.5273247,0-5.2135983-1.8639374-5.2135983-5.3183136v-9.4244003c0-3.4543839,2.6862736-5.3183174,5.2135983-5.3183174  c2.5263863,0,5.2126617,1.8639336,5.2126617,5.3183174v9.4244003C41.5260353,78.071701,38.8397598,79.9356384,36.3133736,79.9356384  z M36.3133736,63.7043915c-0.4160805,0-1.383812,0.144928-1.383812,1.488533v9.4244003  c0,1.343605,0.9677315,1.4885254,1.383812,1.4885254c0.4151421,0,1.3828735-0.1449203,1.3828735-1.4885254v-9.4244003  C37.6962471,63.8493195,36.7285156,63.7043915,36.3133736,63.7043915z"/></svg>